<?xml version="1.0" encoding="UTF-8" standalone="no"?>
<!-- Created with Inkscape (http://www.inkscape.org/) -->

<svg
   width="300mm"
   height="300mm"
   viewBox="0 0 300 300"
   version="1.1"
   id="svg1"
   xml:space="preserve"
   inkscape:version="1.4.2 (f4327f4, 2025-05-13)"
   sodipodi:docname="logo.svg"
   inkscape:export-filename="favicon.png"
   inkscape:export-xdpi="96"
   inkscape:export-ydpi="96"
   xmlns:inkscape="http://www.inkscape.org/namespaces/inkscape"
   xmlns:sodipodi="http://sodipodi.sourceforge.net/DTD/sodipodi-0.dtd"
   xmlns="http://www.w3.org/2000/svg"
   xmlns:svg="http://www.w3.org/2000/svg"><sodipodi:namedview
     id="namedview1"
     pagecolor="#ffffff"
     bordercolor="#000000"
     borderopacity="0.25"
     inkscape:showpageshadow="2"
     inkscape:pageopacity="0.0"
     inkscape:pagecheckerboard="0"
     inkscape:deskcolor="#d1d1d1"
     inkscape:document-units="mm"
     inkscape:zoom="0.38663019"
     inkscape:cx="222.43478"
     inkscape:cy="610.40241"
     inkscape:window-width="1920"
     inkscape:window-height="1119"
     inkscape:window-x="-9"
     inkscape:window-y="-9"
     inkscape:window-maximized="1"
     inkscape:current-layer="layer1" /><defs
     id="defs1" /><g
     inkscape:label="Слой 1"
     inkscape:groupmode="layer"
     id="layer1"><rect
       style="display:inline;fill:#121212;fill-opacity:1;fill-rule:nonzero;stroke:none;stroke-width:4.61813;stroke-dasharray:none"
       id="rect2"
       width="294.9971"
       height="294.9971"
       x="2.5014405"
       y="2.5014405"
       ry="57.443619" /><path
       style="display:inline;fill:#121212;fill-opacity:1;fill-rule:nonzero;stroke:#ffffff;stroke-width:13;stroke-dasharray:none"
       d="M 150,150 236.96311,62.451298"
       id="path3"
       sodipodi:nodetypes="cc" /><path
       style="display:inline;fill:#121212;fill-opacity:1;fill-rule:nonzero;stroke:#ffffff;stroke-width:13;stroke-dasharray:none"
       d="M 62.895145,237.70594 149.99999,150"
       id="path3-6"
       sodipodi:nodetypes="cc" /><path
       style="display:inline;fill:#121212;fill-opacity:1;fill-rule:nonzero;stroke:#ffffff;stroke-width:13;stroke-dasharray:none"
       d="M 150,150 62.895138,62.451294"
       id="path3-1"
       sodipodi:nodetypes="cc" /><path
       style="display:inline;fill:#666666;fill-opacity:1;fill-rule:nonzero;stroke:#ffffff;stroke-width:13;stroke-dasharray:none"
       d="M 236.96307,237.70591 178.40135,178.40135 150,150"
       id="path3-1-1"
       sodipodi:nodetypes="ccc" /><circle
       style="display:inline;fill:#ab66ff;fill-opacity:1;fill-rule:nonzero;stroke:#ffffff;stroke-width:10;stroke-dasharray:none"
       id="path2"
       cx="150"
       cy="150"
       r="54.30682" /><circle
       style="display:inline;fill:#ff754a;fill-opacity:1;fill-rule:nonzero;stroke:#ffffff;stroke-width:10.00011542;stroke-dasharray:none;stroke-linecap:square;stroke-linejoin:bevel"
       id="path2-8"
       cx="124.11985"
       cy="212.14082"
       r="43.215523"
       transform="matrix(0.70470061,-0.70950479,0.70470061,0.70950479,0,0)" /><circle
       style="display:inline;fill:#808080;fill-opacity:1;fill-rule:nonzero;stroke:none;stroke-width:4.215;stroke-dasharray:none"
       id="path2-8-2"
       cx="335.64569"
       cy="-0.6149506"
       r="39.782181"
       transform="matrix(0.70470061,0.70950479,-0.70470061,0.70950479,0,0)" /><circle
       style="display:inline;fill:#eb54bc;fill-opacity:1;fill-rule:nonzero;stroke:none;stroke-width:5.15686;stroke-dasharray:none"
       id="path2-8-7-1"
       cx="-88.63591"
       cy="0.6149506"
       r="48.671673"
       transform="matrix(-0.70470061,-0.70950479,0.70470061,-0.70950479,0,0)" /><circle
       style="display:inline;fill:#14f195;fill-opacity:1;fill-rule:nonzero;stroke:none;stroke-width:4.94008;stroke-dasharray:none"
       id="path2-8-7"
       cx="124.64289"
       cy="-210.38789"
       r="46.625618"
       transform="matrix(-0.70470061,0.70950479,-0.70470061,-0.70950479,0,0)"
       inkscape:transform-center-x="33.77995"
       inkscape:transform-center-y="1.2706434e-05" /><path
       sodipodi:type="star"
       style="display:none;fill:#ffffff;fill-opacity:1;fill-rule:nonzero;stroke:none;stroke-width:4;stroke-dasharray:none"
       id="path4"
       inkscape:flatsided="false"
       sodipodi:sides="3"
       sodipodi:cx="132.76038"
       sodipodi:cy="57.483871"
       sodipodi:r1="1.3686635"
       sodipodi:r2="0.68433177"
       sodipodi:arg1="-1.5707963"
       sodipodi:arg2="-0.52359878"
       inkscape:rounded="0"
       inkscape:randomized="0"
       d="m 132.76038,56.115208 0.59264,1.026498 0.59265,1.026497 -1.18529,0 -1.1853,0 0.59265,-1.026497 z"
       inkscape:transform-center-y="1.3749463"
       transform="matrix(5.4773887,5.4892438,-5.4773887,5.4892438,-215.33624,-941.09355)"
       inkscape:transform-center-x="1.3720004" /><path
       fill-rule="evenodd"
       clip-rule="evenodd"
       d="m 76.8097,223.79138 c 0,7.68501 -6.229546,13.91456 -13.914555,13.91456 -7.685008,0 -13.914553,-6.22955 -13.914553,-13.91456 0,-7.68477 6.229545,-13.91455 13.914553,-13.91455 7.685009,0 13.914555,6.22978 13.914555,13.91455 z m -13.914555,47.11394 c 8.274522,0 15.953964,-2.54914 22.29529,-6.90533 2.801001,-1.92391 3.997651,-5.58902 2.369649,-8.57136 -3.37567,-6.18224 -10.332021,-10.03332 -24.665402,-10.03332 -14.332964,0 -21.288943,3.85061 -24.664753,10.03332 -1.62842,2.98234 -0.431536,6.64698 2.369277,8.5709 6.341419,4.35618 14.020955,6.90579 22.295939,6.90579 z"
       fill="#1c274c"
       id="path1"
       style="display:none;fill:#242424;fill-opacity:1;stroke-width:4.63819"
       sodipodi:nodetypes="ssssssccsscs" /><g
       style="display:none;fill:none"
       id="g4"
       transform="matrix(9.4320985,0,0,9.4320985,-3.5562076,-58.3301)"><path
         fill-rule="evenodd"
         clip-rule="evenodd"
         d="m 5.4035557,9.5049649 h 3.2833604 c 0.4001151,0 0.6001554,0 0.7614926,0.056139 0.3059643,0.1064573 0.546158,0.3537416 0.6495613,0.6687061 0.05455,0.166099 0.05455,0.372041 0.05455,0.783933 v 3.538361 c 0,2.071526 -6.2145793,2.07153 -6.2145793,3e-6 v -3.538362 c 0,-0.411891 0,-0.617835 0.054533,-0.783932 C 4.0958923,9.9148472 4.3360986,9.6675658 4.6420526,9.5611058 4.8033967,9.5049684 5.0034475,9.5049684 5.4035555,9.5049684 Z m -0.084594,1.6399561 c -0.1430078,0 -0.2589408,0.115939 -0.2589408,0.25894 0,0.143008 0.115933,0.258942 0.2589408,0.258942 h 0.1726271 c 0.1430077,0 0.2589406,-0.115939 0.2589406,-0.258942 0,-0.143007 -0.1159329,-0.25894 -0.2589406,-0.25894 z m 1.2083897,0 c -0.1430043,0 -0.2589407,0.115939 -0.2589407,0.25894 0,0.143008 0.1159366,0.258942 0.2589407,0.258942 h 2.2441522 c 0.1430042,0 0.2589406,-0.115939 0.2589406,-0.258942 0,-0.143007 -0.1159364,-0.25894 -0.2589406,-0.25894 z m -1.2083903,1.20839 c -0.1430075,0 -0.2589405,0.115939 -0.2589405,0.258941 0,0.143004 0.115933,0.258941 0.2589405,0.258941 h 0.1726273 c 0.1430076,0 0.2589406,-0.115939 0.2589406,-0.258941 0,-0.143005 -0.115933,-0.258941 -0.2589406,-0.258941 z m 1.2083898,0 c -0.1430043,0 -0.2589406,0.115939 -0.2589406,0.258941 0,0.143004 0.1159364,0.258941 0.2589406,0.258941 H 8.771503 c 0.1430043,0 0.2589407,-0.115939 0.2589407,-0.258941 0,-0.143005 -0.1159364,-0.258941 -0.2589407,-0.258941 z M 5.3189616,13.5617 c -0.1430075,0 -0.2589405,0.115939 -0.2589405,0.258941 0,0.143003 0.115933,0.25894 0.2589405,0.25894 h 0.1726273 c 0.1430076,0 0.2589406,-0.115938 0.2589406,-0.25894 0,-0.143004 -0.115933,-0.258941 -0.2589406,-0.258941 z m 1.2083898,0 c -0.1430043,0 -0.2589406,0.115939 -0.2589406,0.258941 0,0.143003 0.1159364,0.25894 0.2589406,0.25894 h 2.2441521 c 0.1430043,0 0.2589407,-0.115938 0.2589407,-0.25894 0,-0.143004 -0.1159364,-0.258941 -0.2589407,-0.258941 z"
         fill="#1c274c"
         id="path1-7"
         style="display:inline;fill:#242424;fill-opacity:1;stroke-width:0.345254"
         sodipodi:nodetypes="csccssssccccssssssssssssssssssssssssssssssssssssssssss" /></g><g
       style="display:none;fill:#242424;fill-opacity:1"
       id="g5"
       transform="matrix(9.4320985,0,0,9.4320985,69.259166,49.414713)"><path
         fill-rule="evenodd"
         clip-rule="evenodd"
         d="m 18.725481,-1.7083584 c 0.21093,0.056515 0.336086,0.273329 0.279571,0.4842592 l -1.364483,5.0922864 c -0.05652,0.2109302 -0.27335,0.3361388 -0.484281,0.2796236 -0.21093,-0.056568 -0.336086,-0.27335 -0.279565,-0.4842802 l 1.364478,-5.0923023 c 0.05652,-0.2109302 0.27335,-0.3361071 0.48428,-0.2795867 z m 0.577407,2.03683294 c 0.154415,-0.1544098 0.404727,-0.1544098 0.559142,0 l 0.109867,0.10983556 c 0.334926,0.33492096 0.614234,0.6142177 0.806132,0.8657524 0.202601,0.2654948 0.34468,0.5460146 0.34468,0.8855802 0,0.3395655 -0.142079,0.6200854 -0.34468,0.8855802 -0.191898,0.2515241 -0.471206,0.5308314 -0.806132,0.8657577 L 19.86203,4.050795 c -0.154415,0.1544151 -0.404727,0.1544151 -0.559142,0 -0.154415,-0.154415 -0.154415,-0.4047267 0,-0.5591417 l 0.09041,-0.090467 c 0.359388,-0.359388 0.60021,-0.60137 0.756049,-0.8056576 0.148879,-0.1951144 0.182567,-0.3087247 0.182567,-0.4058865 0,-0.097162 -0.03369,-0.2107721 -0.182567,-0.4058866 C 19.993508,1.579468 19.752686,1.3374861 19.393298,0.97810335 l -0.09041,-0.0904559 c -0.154415,-0.1544098 -0.154415,-0.40475833 0,-0.55917291 z M 16.019982,-1.3979815 c 0.15441,-0.1544098 0.404758,-0.1544098 0.559173,0 0.15441,0.1544151 0.154413,0.40476705 0,0.55917346 l -0.09046,0.0904559 c -0.359357,0.35938276 -0.600164,0.60136473 -0.756023,0.80565233 -0.148896,0.19511444 -0.182552,0.30872474 -0.182552,0.40588654 0,0.097162 0.03366,0.2107721 0.182552,0.4058865 0.155859,0.20428757 0.396666,0.44626917 0.756027,0.80565757 l 0.09046,0.090467 c 0.15441,0.154415 0.15441,0.4047267 0,0.5591417 -0.154415,0.1544151 -0.404763,0.1544151 -0.559173,0 L 15.910141,2.2145246 C 15.575194,1.8795983 15.295892,1.600291 15.103977,1.3487669 14.901408,1.0832721 14.759329,0.80275224 14.759329,0.46318674 c 0,-0.33956555 0.142079,-0.62008539 0.344648,-0.8855802 0.191915,-0.25153472 0.471219,-0.5308241 0.806164,-0.86575244 z"
         fill="#1c274c"
         id="path1-1"
         sodipodi:nodetypes="cccccccccccscccscccsccccccsccscscccccscsc"
         style="fill:#242424;fill-opacity:1;stroke-width:0.527194" /></g><g
       style="display:none;fill:#242424;fill-opacity:1"
       id="g6"
       transform="matrix(8.0693224,0,0,8.0693224,18.303006,90.489866)"><path
         fill-rule="evenodd"
         clip-rule="evenodd"
         d="m 16.508775,3.3130745 c -0.6213,0 -1.125,0.50368 -1.125,1.125 0,0.41421 -0.3358,0.75 -0.75,0.75 -0.41421,0 -0.75,-0.33579 -0.75,-0.75 0,-1.44975 1.1753,-2.625 2.625,-2.625 1.4497,0 2.625,1.17525 2.625,2.625 0,0.71084 -0.2835,1.357 -0.742,1.829 -0.0923,0.0949 -0.1803,0.1829 -0.2643,0.2668 -0.2158,0.2156 -0.4049,0.4045 -0.5708,0.6177 -0.219,0.2814 -0.2979,0.4883 -0.2979,0.6615 v 0.75 c 0,0.4142 -0.3358,0.75 -0.75,0.75 -0.4142,0 -0.75,-0.3358 -0.75,-0.75 v -0.75 c 0,-0.6552 0.305,-1.1856 0.6142,-1.5828 0.2287,-0.2939 0.5162,-0.5809 0.7496,-0.81374 0.0704,-0.07025 0.1358,-0.13557 0.1932,-0.19469 0.1976,-0.20334 0.318,-0.47873 0.318,-0.78377 0,-0.62132 -0.5037,-1.125 -1.125,-1.125 z m 0,9.2500005 c 0.5523,0 1,-0.4477 1,-1 0,-0.5523 -0.4477,-1 -1,-1 -0.5523,0 -1,0.4477 -1,1 0,0.5523 0.4477,1 1,1 z"
         fill="#1c274c"
         id="path1-5"
         sodipodi:nodetypes="sssssscccssssscccsssssss"
         style="fill:#242424;fill-opacity:1" /></g></g></svg>
